arm26_states
version=1
nRows=27
nColumns=17
inDegrees=yes

# SIMM Motion File Header:
name arm26_states
datacolumns 17
datarows 27
otherdata 1
range 0.57938902 0.68002198
endheader
time	/jointset/r_shoulder/r_shoulder_elev/value	/jointset/r_shoulder/r_shoulder_elev/speed	/jointset/r_elbow/r_elbow_flex/value	/jointset/r_elbow/r_elbow_flex/speed	/forceset/TRIlong/activation	/forceset/TRIlong/fiber_length	/forceset/TRIlat/activation	/forceset/TRIlat/fiber_length	/forceset/TRImed/activation	/forceset/TRImed/fiber_length	/forceset/BIClong/activation	/forceset/BIClong/fiber_length	/forceset/BICshort/activation	/forceset/BICshort/fiber_length	/forceset/BRA/activation	/forceset/BRA/fiber_length
      0.57938902	     -4.62334080	     -2.11178649	     62.64960375	     25.96179003	      0.01000738	      0.15790323	      0.06237118	      0.09441245	      0.05981000	      0.08944837	      0.18377406	      0.12068333	      0.01706035	      0.12031311	      0.01012938	      0.07842670
      0.58329523	     -4.63158990	     -2.73484517	     62.75101609	     25.76771484	      0.01000731	      0.15790672	      0.06336842	      0.09444142	      0.06078365	      0.08947775	      0.18449600	      0.12060200	      0.01677863	      0.12024891	      0.01012598	      0.07839571
      0.58720145	     -4.64227279	     -3.36124226	     62.85167034	     25.48046740	      0.01000725	      0.15796046	      0.06437793	      0.09446996	      0.06176926	      0.08950670	      0.18521614	      0.12052216	      0.01649879	      0.12018591	      0.01012268	      0.07836516
      0.59234055	     -4.65954656	     -4.16098266	     62.98261705	     25.19931375	      0.01000717	      0.15796628	      0.06595829	      0.09450703	      0.06331067	      0.08954433	      0.18604093	      0.12041903	      0.01618252	      0.12010446	      0.01011889	      0.07832494
      0.59689216	     -4.67848572	     -4.87004127	     63.09731443	     24.82943223	      0.01000709	      0.15803883	      0.06741928	      0.09453821	      0.06473436	      0.08957598	      0.18671848	      0.12033036	      0.01595101	      0.12003296	      0.01011604	      0.07829013
      0.59988348	     -4.69305357	     -5.30781019	     63.17158722	     24.66833263	      0.01000704	      0.15801163	      0.06822678	      0.09455810	      0.06552248	      0.08959624	      0.18722682	      0.12027363	      0.01578975	      0.11998603	      0.01011401	      0.07826705
      0.60287480	     -4.70893093	     -5.74862576	     63.24537811	     24.37750347	      0.01000700	      0.15805721	      0.06901065	      0.09457815	      0.06628823	      0.08961668	      0.18775230	      0.12021779	      0.01562286	      0.11993985	      0.01011189	      0.07824454
      0.60723895	     -4.73401879	     -6.36482975	     63.35176517	     24.03905469	      0.01000693	      0.15805857	      0.07017835	      0.09460758	      0.06742982	      0.08964667	      0.18850984	      0.12013755	      0.01537850	      0.11987362	      0.01010884	      0.07821164
      0.61260710	     -4.76818620	     -7.11646292	     63.48081059	     23.51621576	      0.01000684	      0.15810559	      0.07163925	      0.09464358	      0.06885868	      0.08968332	      0.18942983	      0.12004120	      0.01507692	      0.11979440	      0.01010516	      0.07817206
      0.61797526	     -4.80638849	     -7.83594486	     63.60704932	     23.08856773	      0.01000676	      0.15809462	      0.07314301	      0.09467900	      0.07033007	      0.08971932	      0.19029576	      0.11994783	      0.01478107	      0.11971782	      0.01010158	      0.07813258
      0.62198702	     -4.83782442	     -8.37696553	     63.69967513	     22.67635289	      0.01000670	      0.15814704	      0.07427842	      0.09470475	      0.07144119	      0.08974548	      0.19090706	      0.11988053	      0.01456642	      0.11966262	      0.01009897	      0.07810443
      0.62599878	     -4.87143080	     -8.88975436	     63.79064724	     22.39351716	      0.01000664	      0.15811219	      0.07541835	      0.09473004	      0.07255710	      0.08977117	      0.19147721	      0.11981510	      0.01435896	      0.11960869	      0.01009643	      0.07807569
      0.62930694	     -4.90083952	     -9.32148137	     63.86472854	     22.04068083	      0.01000659	      0.15816866	      0.07636138	      0.09475048	      0.07348047	      0.08979194	      0.19192565	      0.11976280	      0.01419366	      0.11956536	      0.01009437	      0.07805310
      0.63261510	     -4.93167646	     -9.72679276	     63.93764261	     21.81727510	      0.01000654	      0.15813011	      0.07730970	      0.09477063	      0.07440930	      0.08981242	      0.19235247	      0.11971180	      0.01403330	      0.11952281	      0.01009236	      0.07803015
      0.63592326	     -4.96385424	    -10.14056582	     64.00981762	     21.47255497	      0.01000649	      0.15817533	      0.07826042	      0.09479045	      0.07534060	      0.08983256	      0.19276679	      0.11966217	      0.01387766	      0.11948116	      0.01009039	      0.07800789
      0.63923142	     -4.99740084	    -10.53024416	     64.08085224	     21.23135045	      0.01000644	      0.15814793	      0.07921147	      0.09480999	      0.07627257	      0.08985243	      0.19315583	      0.11961383	      0.01372700	      0.11944029	      0.01008845	      0.07798559
      0.64328487	     -5.04008471	    -11.01076119	     64.16691257	     20.82871760	      0.01000638	      0.15818088	      0.08037669	      0.09483356	      0.07741471	      0.08987638	      0.19360849	      0.11955626	      0.01354839	      0.11939128	      0.01008613	      0.07795890
      0.64733833	     -5.08471634	    -11.46252969	     64.25134085	     20.51275480	      0.01000633	      0.15815161	      0.08162063	      0.09485671	      0.07862504	      0.08989992	      0.19399759	      0.11950065	      0.01339148	      0.11934344	      0.01008467	      0.07793232
      0.65139178	     -5.13117919	    -11.91356614	     64.33448839	     20.08700784	      0.01000628	      0.15818686	      0.08300948	      0.09487917	      0.07996036	      0.08992278	      0.19428596	      0.11944713	      0.01327715	      0.11929654	      0.01009280	      0.07790649
      0.65499653	     -5.17412464	    -12.28381701	     64.40689706	     19.79307462	      0.01000625	      0.15814814	      0.08422115	      0.09489829	      0.08112838	      0.08994232	      0.19451895	      0.11940148	      0.01319906	      0.11925492	      0.01010827	      0.07788338
      0.65860128	     -5.21840475	    -12.65253871	     64.47824617	     19.36818603	      0.01000621	      0.15818312	      0.08531130	      0.09491689	      0.08219400	      0.08996136	      0.19477592	      0.11935753	      0.01311993	      0.11921369	      0.01010805	      0.07786095
      0.66224615	     -5.26452150	    -12.99044417	     64.54884053	     19.01926410	      0.01000617	      0.15814215	      0.08636253	      0.09493558	      0.08322860	      0.08998048	      0.19504763	      0.11931464	      0.01303889	      0.11917282	      0.01010731	      0.07783865
      0.66589101	     -5.31186987	    -13.32646905	     64.61816311	     18.53960093	      0.01000613	      0.15817553	      0.08739575	      0.09495413	      0.08424459	      0.08999942	      0.19530935	      0.11927330	      0.01295638	      0.11913319	      0.01010618	      0.07781688
      0.66953587	     -5.36044300	    -13.63062869	     64.68573739	     18.15670123	      0.01000609	      0.15812890	      0.08842149	      0.09497248	      0.08525293	      0.09001813	      0.19556569	      0.11923348	      0.01287248	      0.11909483	      0.01010468	      0.07779539
      0.67318073	     -5.41012476	    -13.93872357	     64.75191605	     17.65049659	      0.01000605	      0.15816474	      0.08946800	      0.09499050	      0.08628516	      0.09003647	      0.19580309	      0.11919523	      0.01279043	      0.11905796	      0.01010295	      0.07777458
      0.67682559	     -5.46092947	    -14.21598807	     64.81624967	     17.26761312	      0.01000600	      0.15810664	      0.09052964	      0.09500809	      0.08733456	      0.09005437	      0.19602595	      0.11915855	      0.01271101	      0.11902241	      0.01010103	      0.07775404
      0.68002198	     -5.50636933	    -14.46775003	     64.87144371	     16.80805947	      0.01000596	      0.15814846	      0.09147042	      0.09502307	      0.08826341	      0.09006958	      0.19621502	      0.11912781	      0.01264258	      0.11899250	      0.01009926	      0.07773667
